<!-- <svg xmlns="http://www.w3.org/2000/svg" width="32" height="32" fill="#ffffff" viewBox="0 0 256 256"><path d="M152,224a8,8,0,0,1-8,8H112a8,8,0,0,1,0-16h32A8,8,0,0,1,152,224ZM128,112a12,12,0,1,0-12-12A12,12,0,0,0,128,112Zm95.62,43.83-12.36,55.63a16,16,0,0,1-25.51,9.11L158.51,200h-61L70.25,220.57a16,16,0,0,1-25.51-9.11L32.38,155.83a16.09,16.09,0,0,1,3.32-13.71l28.56-34.26a123.07,123.07,0,0,1,8.57-36.67c12.9-32.34,36-52.63,45.37-59.85a16,16,0,0,1,19.6,0c9.34,7.22,32.47,27.51,45.37,59.85a123.07,123.07,0,0,1,8.57,36.67l28.56,34.26A16.09,16.09,0,0,1,223.62,155.83ZM99.43,184h57.14c21.12-37.54,25.07-73.48,11.74-106.88C156.55,47.64,134.49,29,128,24c-6.51,5-28.57,23.64-40.33,53.12C74.36,110.52,78.31,146.46,99.43,184Zm-15,5.85Q68.28,160.5,64.83,132.16L48,152.36,60.36,208l.18-.13ZM208,152.36l-16.83-20.2q-3.42,28.28-19.56,57.69l23.85,18,.18.13Z"></path></svg> -->
<!-- rocket --><svg xmlns="http://www.w3.org/2000/svg" width="32" height="32" fill="#587dff" viewBox="0 0 256 256"><path d="M234.35,129,152,152,129,234.35a8,8,0,0,1-15.21.27l-65.28-176A8,8,0,0,1,58.63,48.46l176,65.28A8,8,0,0,1,234.35,129Z" opacity="0.2"></path><path d="M237.33,106.21,61.41,41l-.16-.05A16,16,0,0,0,40.9,61.25a1,1,0,0,0,.05.16l65.26,175.92A15.77,15.77,0,0,0,121.28,248h.3a15.77,15.77,0,0,0,15-11.29l.06-.2,21.84-78,78-21.84.2-.06a16,16,0,0,0,.62-30.38ZM149.84,144.3a8,8,0,0,0-5.54,5.54L121.3,232l-.06-.17L56,56l175.82,65.22.16.06Z"></path></svg>